<svg width="283.771" height="34.525" viewBox="0 0 283.771 34.525" xmlns="http://www.w3.org/2000/svg"><g id="svgGroup" stroke-linecap="round" fill-rule="evenodd" font-size="9pt" stroke="#000" stroke-width="0.5mm" fill="white" style="stroke:#000;stroke-width:0.1mm;fill:white"><path d="M 25.021 16.024 L 25.021 29.704 Q 24.098 30.717 22.951 31.606 Q 21.803 32.494 20.431 33.136 Q 19.058 33.777 17.438 34.148 A 15.592 15.592 0 0 1 13.951 34.519 A 12.004 12.004 0 0 1 8.123 33.113 Q 5.536 31.707 3.724 29.299 Q 1.913 26.892 0.957 23.674 A 23.974 23.974 0 0 1 0.001 16.812 A 23.479 23.479 0 0 1 0.867 10.366 Q 1.733 7.317 3.522 5.011 A 12.834 12.834 0 0 1 8.033 1.354 Q 10.756 0.004 14.468 0.004 A 14.479 14.479 0 0 1 19.362 0.826 A 10.848 10.848 0 0 1 23.288 3.199 L 21.263 5.607 Q 20.183 4.887 18.552 4.347 Q 16.921 3.807 14.828 3.807 Q 12.083 3.807 10.171 4.842 Q 8.258 5.877 7.043 7.643 A 12.034 12.034 0 0 0 5.277 11.761 Q 4.726 14.112 4.726 16.744 A 21.212 21.212 0 0 0 4.973 19.928 Q 5.221 21.559 5.727 23.112 Q 6.233 24.664 7.032 26.037 Q 7.831 27.409 8.922 28.444 A 8.536 8.536 0 0 0 11.408 30.087 Q 12.803 30.694 14.536 30.694 Q 15.548 30.694 16.493 30.481 A 10.687 10.687 0 0 0 18.248 29.929 Q 19.058 29.592 19.699 29.176 Q 20.341 28.759 20.746 28.332 L 20.746 19.624 L 13.771 19.174 L 13.771 16.024 L 25.021 16.024 Z M 100.778 2.704 L 98.596 5.472 A 13.695 13.695 0 0 0 95.659 4.144 Q 94.253 3.717 92.521 3.717 Q 91.306 3.717 90.147 3.964 A 6.378 6.378 0 0 0 88.099 4.763 Q 87.211 5.314 86.659 6.203 A 4.043 4.043 0 0 0 86.108 8.374 Q 86.108 9.634 86.783 10.557 A 6.947 6.947 0 0 0 88.549 12.211 Q 89.641 12.942 91.047 13.561 Q 92.453 14.179 93.916 14.866 A 36.066 36.066 0 0 1 96.784 16.373 Q 98.191 17.194 99.282 18.308 Q 100.373 19.422 101.048 20.907 Q 101.723 22.392 101.723 24.417 Q 101.723 26.082 101.273 27.488 A 9.163 9.163 0 0 1 100.024 30.019 A 9.101 9.101 0 0 1 98.123 31.988 A 11.309 11.309 0 0 1 95.716 33.394 A 13.364 13.364 0 0 1 92.959 34.238 A 15.515 15.515 0 0 1 90.001 34.519 Q 84.758 34.429 80.866 32.022 L 82.913 28.647 A 13.144 13.144 0 0 0 84.094 29.311 A 16.093 16.093 0 0 0 85.726 30.019 Q 86.626 30.357 87.638 30.582 Q 88.651 30.807 89.686 30.807 A 10.8 10.8 0 0 0 92.419 30.458 Q 93.758 30.109 94.804 29.378 A 5.644 5.644 0 0 0 96.492 27.522 A 5.319 5.319 0 0 0 97.133 24.844 A 4.755 4.755 0 0 0 96.458 22.291 A 7.614 7.614 0 0 0 94.692 20.333 A 14.022 14.022 0 0 0 92.194 18.769 A 206.824 206.824 0 0 0 89.326 17.374 Q 87.863 16.677 86.457 15.912 Q 85.051 15.147 83.959 14.179 A 8.081 8.081 0 0 1 82.193 11.963 Q 81.518 10.714 81.518 9.027 Q 81.518 6.844 82.418 5.168 A 8.827 8.827 0 0 1 84.792 2.344 Q 86.266 1.197 88.133 0.601 A 12.43 12.43 0 0 1 91.936 0.004 Q 96.728 0.004 100.778 2.704 Z M 227.948 10.579 L 226.643 13.459 Q 226.238 13.257 225.676 13.054 Q 225.113 12.852 224.506 12.694 Q 223.898 12.537 223.279 12.447 Q 222.661 12.357 222.098 12.357 A 6.007 6.007 0 0 0 218.723 13.066 Q 217.733 13.774 217.733 15.192 A 2.063 2.063 0 0 0 218.386 16.756 A 6.525 6.525 0 0 0 220.073 17.869 Q 221.108 18.364 222.379 18.803 A 20.535 20.535 0 0 1 224.866 19.849 Q 225.743 20.277 226.643 20.862 Q 227.543 21.447 228.263 22.234 Q 228.983 23.022 229.433 24.012 Q 229.883 25.002 229.883 26.239 Q 229.883 28.512 229.118 30.087 A 6.848 6.848 0 0 1 227.037 32.641 A 8.705 8.705 0 0 1 223.954 34.069 Q 222.188 34.519 220.186 34.519 Q 219.421 34.519 218.453 34.373 Q 217.486 34.227 216.518 33.968 A 15.207 15.207 0 0 1 214.673 33.349 Q 213.796 32.989 213.211 32.584 L 214.696 29.614 A 8.966 8.966 0 0 0 215.978 30.121 Q 216.721 30.357 217.508 30.537 A 16.723 16.723 0 0 0 219.072 30.818 A 10.823 10.823 0 0 0 220.456 30.919 A 9.103 9.103 0 0 0 222.447 30.706 A 5.15 5.15 0 0 0 224.134 30.019 Q 224.866 29.547 225.304 28.793 A 3.636 3.636 0 0 0 225.743 26.937 Q 225.743 26.104 225.394 25.474 A 3.799 3.799 0 0 0 224.449 24.361 A 7.984 7.984 0 0 0 223.066 23.472 Q 222.278 23.067 221.401 22.696 Q 220.523 22.324 219.601 21.931 A 17.351 17.351 0 0 1 217.846 21.064 A 15.5 15.5 0 0 1 216.327 20.074 Q 215.596 19.534 215.033 18.859 Q 214.471 18.184 214.133 17.341 Q 213.796 16.497 213.796 15.417 Q 213.796 13.707 214.403 12.481 A 5.18 5.18 0 0 1 216.113 10.489 Q 217.216 9.724 218.768 9.364 Q 220.321 9.004 222.188 9.004 Q 223.043 9.004 223.876 9.139 A 14.645 14.645 0 0 1 225.473 9.488 A 9.175 9.175 0 0 1 226.868 9.994 Q 227.498 10.287 227.948 10.579 Z M 56.948 10.579 L 55.643 13.459 Q 55.238 13.257 54.676 13.054 Q 54.113 12.852 53.506 12.694 Q 52.898 12.537 52.279 12.447 Q 51.661 12.357 51.098 12.357 A 6.007 6.007 0 0 0 47.723 13.066 Q 46.733 13.774 46.733 15.192 A 2.063 2.063 0 0 0 47.386 16.756 A 6.525 6.525 0 0 0 49.073 17.869 Q 50.108 18.364 51.379 18.803 A 20.535 20.535 0 0 1 53.866 19.849 Q 54.743 20.277 55.643 20.862 Q 56.543 21.447 57.263 22.234 Q 57.983 23.022 58.433 24.012 Q 58.883 25.002 58.883 26.239 Q 58.883 28.512 58.118 30.087 A 6.848 6.848 0 0 1 56.037 32.641 A 8.705 8.705 0 0 1 52.954 34.069 Q 51.188 34.519 49.186 34.519 Q 48.421 34.519 47.453 34.373 Q 46.486 34.227 45.518 33.968 A 15.207 15.207 0 0 1 43.673 33.349 Q 42.796 32.989 42.211 32.584 L 43.696 29.614 A 8.966 8.966 0 0 0 44.978 30.121 Q 45.721 30.357 46.508 30.537 A 16.723 16.723 0 0 0 48.072 30.818 A 10.823 10.823 0 0 0 49.456 30.919 A 9.103 9.103 0 0 0 51.447 30.706 A 5.15 5.15 0 0 0 53.134 30.019 Q 53.866 29.547 54.304 28.793 A 3.636 3.636 0 0 0 54.743 26.937 Q 54.743 26.104 54.394 25.474 A 3.799 3.799 0 0 0 53.449 24.361 A 7.984 7.984 0 0 0 52.066 23.472 Q 51.278 23.067 50.401 22.696 Q 49.523 22.324 48.601 21.931 A 17.351 17.351 0 0 1 46.846 21.064 A 15.5 15.5 0 0 1 45.327 20.074 Q 44.596 19.534 44.033 18.859 Q 43.471 18.184 43.133 17.341 Q 42.796 16.497 42.796 15.417 Q 42.796 13.707 43.403 12.481 A 5.18 5.18 0 0 1 45.113 10.489 Q 46.216 9.724 47.768 9.364 Q 49.321 9.004 51.188 9.004 Q 52.043 9.004 52.876 9.139 A 14.645 14.645 0 0 1 54.473 9.488 A 9.175 9.175 0 0 1 55.868 9.994 Q 56.498 10.287 56.948 10.579 Z M 188.303 29.074 L 190.756 31.234 Q 190.058 31.954 189.226 32.562 Q 188.393 33.169 187.381 33.608 Q 186.368 34.047 185.142 34.283 A 14.502 14.502 0 0 1 182.408 34.519 Q 179.416 34.519 177.301 33.462 Q 175.186 32.404 173.847 30.627 Q 172.508 28.849 171.889 26.554 A 18.332 18.332 0 0 1 171.271 21.762 Q 171.271 20.164 171.563 18.601 Q 171.856 17.037 172.441 15.619 Q 173.026 14.202 173.903 12.987 Q 174.781 11.772 175.951 10.894 A 9.533 9.533 0 0 1 178.594 9.511 Q 180.068 9.004 181.846 9.004 Q 184.276 9.004 186.053 9.792 Q 187.831 10.579 189.001 11.997 Q 190.171 13.414 190.733 15.394 Q 191.296 17.374 191.296 19.782 Q 191.296 20.479 191.251 21.312 Q 191.206 22.144 191.116 22.887 L 175.546 22.887 A 10.419 10.419 0 0 0 176.007 26.037 A 8.268 8.268 0 0 0 177.301 28.591 Q 178.133 29.682 179.314 30.301 A 5.61 5.61 0 0 0 181.958 30.919 A 12.932 12.932 0 0 0 184.467 30.706 A 10.702 10.702 0 0 0 186.301 30.188 Q 187.066 29.884 187.549 29.569 Q 188.033 29.254 188.303 29.074 Z M 123.053 29.074 L 125.506 31.234 Q 124.808 31.954 123.976 32.562 Q 123.143 33.169 122.131 33.608 Q 121.118 34.047 119.892 34.283 A 14.502 14.502 0 0 1 117.158 34.519 Q 114.166 34.519 112.051 33.462 Q 109.936 32.404 108.597 30.627 Q 107.258 28.849 106.639 26.554 A 18.332 18.332 0 0 1 106.021 21.762 Q 106.021 20.164 106.313 18.601 Q 106.606 17.037 107.191 15.619 Q 107.776 14.202 108.653 12.987 Q 109.531 11.772 110.701 10.894 A 9.533 9.533 0 0 1 113.344 9.511 Q 114.818 9.004 116.596 9.004 Q 119.026 9.004 120.803 9.792 Q 122.581 10.579 123.751 11.997 Q 124.921 13.414 125.483 15.394 Q 126.046 17.374 126.046 19.782 Q 126.046 20.479 126.001 21.312 Q 125.956 22.144 125.866 22.887 L 110.296 22.887 A 10.419 10.419 0 0 0 110.757 26.037 A 8.268 8.268 0 0 0 112.051 28.591 Q 112.883 29.682 114.064 30.301 A 5.61 5.61 0 0 0 116.708 30.919 A 12.932 12.932 0 0 0 119.217 30.706 A 10.702 10.702 0 0 0 121.051 30.188 Q 121.816 29.884 122.299 29.569 Q 122.783 29.254 123.053 29.074 Z M 202.546 12.987 L 202.546 25.677 A 15.326 15.326 0 0 0 202.714 28.163 Q 202.883 29.164 203.209 29.783 Q 203.536 30.402 204.019 30.661 Q 204.503 30.919 205.133 30.919 A 6.577 6.577 0 0 0 206.033 30.863 Q 206.438 30.807 206.731 30.717 Q 207.068 30.627 207.338 30.514 L 208.891 33.237 Q 208.711 33.417 208.317 33.631 A 7.463 7.463 0 0 1 207.383 34.047 Q 206.843 34.249 206.157 34.384 Q 205.471 34.519 204.683 34.519 Q 202.658 34.519 201.398 33.777 Q 200.138 33.034 199.441 31.752 A 8.699 8.699 0 0 1 198.507 28.771 A 26.413 26.413 0 0 1 198.271 25.137 L 198.271 12.987 L 194.896 12.987 L 194.896 9.387 L 198.271 9.387 L 198.271 4.684 L 202.433 2.187 L 202.433 9.387 L 210.083 9.387 L 209.633 12.987 L 202.546 12.987 Z M 69.796 12.987 L 69.796 25.677 A 15.326 15.326 0 0 0 69.964 28.163 Q 70.133 29.164 70.459 29.783 Q 70.786 30.402 71.269 30.661 Q 71.753 30.919 72.383 30.919 A 6.577 6.577 0 0 0 73.283 30.863 Q 73.688 30.807 73.981 30.717 Q 74.318 30.627 74.588 30.514 L 76.141 33.237 Q 75.961 33.417 75.567 33.631 A 7.463 7.463 0 0 1 74.633 34.047 Q 74.093 34.249 73.407 34.384 Q 72.721 34.519 71.933 34.519 Q 69.908 34.519 68.648 33.777 Q 67.388 33.034 66.691 31.752 A 8.699 8.699 0 0 1 65.757 28.771 A 26.413 26.413 0 0 1 65.521 25.137 L 65.521 12.987 L 62.146 12.987 L 62.146 9.387 L 65.521 9.387 L 65.521 4.684 L 69.683 2.187 L 69.683 9.387 L 77.333 9.387 L 76.883 12.987 L 69.796 12.987 Z M 148.906 11.839 L 146.678 14.382 A 7.16 7.16 0 0 0 144.597 13.099 Q 143.393 12.604 142.111 12.604 A 6.752 6.752 0 0 0 138.893 13.313 A 5.907 5.907 0 0 0 136.744 15.237 A 8.505 8.505 0 0 0 135.541 18.061 Q 135.158 19.669 135.158 21.447 Q 135.158 23.292 135.507 24.968 Q 135.856 26.644 136.688 27.927 A 6.036 6.036 0 0 0 138.904 29.963 A 7.153 7.153 0 0 0 142.358 30.717 Q 144.091 30.717 145.294 30.312 A 7.62 7.62 0 0 0 147.151 29.457 L 148.771 32.629 Q 147.511 33.484 145.834 34.002 Q 144.158 34.519 142.043 34.519 A 10.426 10.426 0 0 1 137.116 33.406 Q 135.001 32.292 133.594 30.436 Q 132.188 28.579 131.479 26.161 A 17.711 17.711 0 0 1 130.771 21.154 A 15.097 15.097 0 0 1 131.457 16.621 Q 132.143 14.427 133.549 12.739 Q 134.956 11.052 137.104 10.028 Q 139.253 9.004 142.156 9.004 Q 144.226 9.004 145.857 9.646 Q 147.488 10.287 148.906 11.839 Z M 159.796 17.262 L 159.796 34.137 L 155.521 34.137 L 155.521 9.387 L 159.796 8.937 L 159.796 13.999 L 162.046 10.062 A 5.952 5.952 0 0 1 162.777 9.691 A 6.787 6.787 0 0 1 163.778 9.353 A 12.596 12.596 0 0 1 164.982 9.106 Q 165.623 9.004 166.298 9.004 Q 167.311 9.004 167.997 9.184 Q 168.683 9.364 169.021 9.522 L 168.796 13.257 Q 168.458 13.144 167.783 12.976 A 6.984 6.984 0 0 0 166.118 12.807 Q 165.218 12.807 164.341 13.167 Q 163.463 13.527 162.653 14.134 Q 161.843 14.742 161.123 15.552 Q 160.403 16.362 159.796 17.262 Z M 267.942 33.541 A 10.476 10.476 0 0 0 272.498 34.519 A 10.859 10.859 0 0 0 277.156 33.541 Q 279.248 32.562 280.711 30.841 A 12.347 12.347 0 0 0 282.972 26.768 A 15.675 15.675 0 0 0 283.771 21.694 Q 283.771 18.972 282.938 16.643 Q 282.106 14.314 280.621 12.616 Q 279.136 10.917 277.066 9.961 A 10.76 10.76 0 0 0 272.498 9.004 A 11 11 0 0 0 267.852 9.961 A 10.277 10.277 0 0 0 264.308 12.616 Q 262.846 14.314 262.058 16.643 Q 261.271 18.972 261.271 21.694 A 15.283 15.283 0 0 0 262.092 26.768 A 12.437 12.437 0 0 0 264.398 30.841 A 10.694 10.694 0 0 0 267.942 33.541 Z M 36.046 9.949 L 36.046 34.137 L 31.771 34.137 L 31.771 10.399 L 36.046 9.949 Z M 254.296 9.949 L 254.296 34.137 L 250.021 34.137 L 250.021 10.399 L 254.296 9.949 Z M 279.496 22.302 Q 279.496 20.479 279.102 18.724 Q 278.708 16.969 277.853 15.586 A 6.912 6.912 0 0 0 275.648 13.347 Q 274.298 12.492 272.408 12.492 Q 270.608 12.492 269.303 13.234 Q 267.998 13.977 267.166 15.214 A 8.827 8.827 0 0 0 265.939 18.027 Q 265.546 19.602 265.546 21.267 Q 265.546 23.089 265.939 24.844 Q 266.333 26.599 267.177 27.972 A 6.775 6.775 0 0 0 269.359 30.188 A 5.933 5.933 0 0 0 272.588 31.032 Q 274.366 31.032 275.671 30.289 A 6.547 6.547 0 0 0 277.831 28.321 Q 278.686 27.094 279.091 25.519 Q 279.496 23.944 279.496 22.302 Z M 113.558 19.512 L 121.771 19.512 Q 121.793 19.264 121.804 19.017 A 10.9 10.9 0 0 0 121.816 18.522 Q 121.816 17.239 121.523 16.159 Q 121.231 15.079 120.634 14.281 Q 120.038 13.482 119.116 13.032 Q 118.193 12.582 116.933 12.582 Q 115.426 12.582 114.357 13.066 Q 113.288 13.549 112.557 14.303 A 6.387 6.387 0 0 0 111.387 15.957 Q 110.948 16.857 110.723 17.667 L 109.553 20.119 L 113.558 19.512 Z M 178.808 19.512 L 187.021 19.512 Q 187.043 19.264 187.054 19.017 A 10.9 10.9 0 0 0 187.066 18.522 Q 187.066 17.239 186.773 16.159 Q 186.481 15.079 185.884 14.281 Q 185.288 13.482 184.366 13.032 Q 183.443 12.582 182.183 12.582 Q 180.676 12.582 179.607 13.066 Q 178.538 13.549 177.807 14.303 A 6.387 6.387 0 0 0 176.637 15.957 Q 176.198 16.857 175.973 17.667 L 174.803 20.119 L 178.808 19.512 Z M 233.956 30.762 Q 233.956 29.997 234.248 29.322 A 3.777 3.777 0 0 1 235.047 28.141 Q 235.553 27.634 236.217 27.342 A 3.503 3.503 0 0 1 237.646 27.049 Q 238.411 27.049 239.086 27.342 A 3.777 3.777 0 0 1 240.267 28.141 Q 240.773 28.647 241.066 29.322 Q 241.358 29.997 241.358 30.762 Q 241.358 31.527 241.066 32.213 Q 240.773 32.899 240.278 33.406 Q 239.783 33.912 239.119 34.216 A 3.392 3.392 0 0 1 237.691 34.519 A 3.546 3.546 0 0 1 236.239 34.216 Q 235.553 33.912 235.047 33.406 Q 234.541 32.899 234.248 32.213 Q 233.956 31.527 233.956 30.762 Z M 249.886 4.887 L 249.886 0.387 L 254.431 0.387 L 254.431 4.887 L 249.886 4.887 Z M 31.636 4.887 L 31.636 0.387 L 36.181 0.387 L 36.181 4.887 L 31.636 4.887 Z" vector-effect="non-scaling-stroke"/></g></svg>